<svg height="16" width="16" xmlns="http://www.w3.org/2000/svg" viewBox="0 0 60 60" style="width: 16px; height: 16px;"><g data-name="Layer 1"><path d="M29,24.55066a17.36807,17.36807,0,0,0-8.45673,2.74707L29,12.71729Zm0,2V57.44934a15.48042,15.48042,0,0,1,0-30.89868Zm2,0a15.48042,15.48042,0,0,1,0,30.89868Zm0-2V12.71729l8.45673,14.58044A17.36807,17.36807,0,0,0,31,24.55066ZM12.54633,41.08551C12.53046,41.39032,12.5,41.69128,12.5,42A17.5164,17.5164,0,0,0,22.94073,58H2.73584ZM37.05927,58A17.5164,17.5164,0,0,0,47.5,42c0-.30872-.03046-.60968-.04633-.91449l8.93948,15.41277A1,1,0,0,1,55.52813,58Z" class="active" fill="#2c2c2c" style="fill: rgb(44, 44, 44);"></path></g></svg>