<svg fill-rule="evenodd" clip-rule="evenodd" height="16" width="16" xmlns="http://www.w3.org/2000/svg" xmlns:xlink="http://www.w3.org/1999/xlink" version="1.1" viewBox="0 0 99.59 86.544" style="width: 16px; height: 16px;"><g><g><path fill-rule="evenodd" clip-rule="evenodd" d="M97.797,84.553c-32.002,0-64,0-96.004,0c-0.305,0.006,0.336-0.915,0.498-1.196 c3.673-6.373,7.484-13.008,11.254-19.519C23.5,46.64,33.599,29.163,43.621,11.851c2.017-3.483,3.828-7.072,5.976-10.357 c0.039-0.059,0.084-0.371,0.199-0.199C65.77,29.006,82.05,56.944,97.797,84.553z M35.056,33.363 c-1.439,2.498-2.926,4.934-4.183,7.469c3.994-4.671,9.347-7.982,17.229-8.764c-0.066-7.004,0.133-14.275-0.1-21.113 C43.73,18.399,39.309,25.983,35.056,33.363z M68.617,40.832c0.108,0.039,0.239,0.12,0.101,0 c-2.804-4.916-5.749-10.031-8.665-15.039c-2.693-4.626-5.348-9.611-8.166-14.042c-0.161-0.253-0.273-0.979-0.498-0.598 c0,6.971,0,13.942,0,20.914C59.279,32.842,64.62,36.166,68.617,40.832z M34.06,42.227c-3.332,3.524-5.677,8.474-5.677,14.739 c0,6.202,2.568,11.106,5.876,14.54c3.361,3.489,7.645,6.115,13.843,6.572c-0.066-14.142,0.133-28.549-0.1-42.524 C42.144,35.925,37.343,38.753,34.06,42.227z M51.389,35.753c0,14.108,0,28.218,0,42.325c5.699-0.357,10.104-2.832,13.444-6.175 c3.279-3.278,5.888-7.667,6.274-13.444c0.509-7.589-2.503-13.059-6.175-16.73c-3.283-3.284-7.587-5.683-13.345-6.175 C51.586,35.32,51.315,35.59,51.389,35.753z M28.881,70.013c-1.832-2.922-3.185-5.953-3.685-9.96 c-0.382-3.063-0.166-6.62,0.498-9.262c0.218-0.869,0.773-1.847,0.697-2.39c0.004,0.033-0.004,0.067,0,0.1 c-3.133,5.352-6.407,10.854-9.561,16.333c-2.943,5.112-6.052,10.363-8.864,15.338c-0.196,0.347-0.544,0.896-0.299,0.995 c12.449-0.066,25.163,0.133,37.446-0.1C37.618,79.618,32.376,75.586,28.881,70.013z M70.51,70.41 c-3.643,5.479-9.261,9.283-16.134,10.756c12.517,0,25.03,0,37.546,0c-2.92-5.417-6.163-10.814-9.262-16.333 C79.571,59.332,76.227,53.907,73.1,48.5C75.979,56.435,74.034,65.111,70.51,70.41z" class="active" fill="#2c2c2c" style="fill: rgb(44, 44, 44);"></path></g></g></svg>